<?xml version="1.0" encoding="UTF-8" standalone="no"?>
<!DOCTYPE svg PUBLIC "-//W3C//DTD SVG 1.1//EN" "http://www.w3.org/Graphics/SVG/1.1/DTD/svg11.dtd">
<svg width="100%" height="50%" viewBox="0 0 194 50" version="1.1" xmlns="http://www.w3.org/2000/svg" xmlns:xlink="http://www.w3.org/1999/xlink" xml:space="preserve" xmlns:serif="http://www.serif.com/" style="fill-rule:evenodd;clip-rule:evenodd;stroke-linejoin:round;stroke-miterlimit:2;">
    <g id="Artboard2" transform="matrix(1.00402,0,0,1,0,0)">
        <rect x="0" y="0" width="193.223" height="50" style="fill:none;"/>
        <g transform="matrix(0.110234,0,0,0.0694443,-12.45,-12.4999)">
            <g>
                <g transform="matrix(0.310092,0,0,0.494208,112.941,180.002)">
                    <g transform="matrix(1,0,0,1,2215.65,804.989)">
                        <path d="M-167.953,-111L41,-111L41,207.703C39.344,231.297 33.578,253.406 23.703,274.031C13.813,294.672 0.844,312.578 -15.219,327.734C-31.281,342.891 -49.797,354.891 -70.797,363.734C-91.797,372.578 -113.828,377 -136.875,377C-161.594,377 -184.859,372.156 -206.672,362.484C-228.5,352.797 -247.438,339.75 -263.5,323.328C-279.563,306.922 -292.328,287.562 -301.797,265.25C-311.266,242.937 -316,219.156 -316,193.891L-316,-304.891C-316,-330.141 -311.266,-353.922 -301.797,-376.234C-292.328,-398.547 -279.563,-417.906 -263.5,-434.328C-247.438,-450.734 -228.5,-463.781 -206.672,-473.469C-184.859,-483.156 -161.594,-488 -136.875,-488C-112.188,-488 -89.125,-483.266 -67.719,-473.797C-46.313,-464.328 -27.562,-451.438 -11.5,-435.125C4.562,-418.813 17.328,-399.516 26.797,-377.219C36.266,-354.922 41,-331.156 41,-305.922L0,-305.922C0,-325.266 -3.703,-343.359 -11.109,-360.187C-18.516,-377 -28.375,-391.734 -40.703,-404.359C-53.031,-416.984 -67.422,-427.078 -83.859,-434.641C-100.297,-442.203 -117.984,-446 -136.891,-446C-155.797,-446 -173.687,-442.203 -190.531,-434.625C-207.391,-427.031 -221.984,-416.922 -234.313,-404.297C-246.641,-391.656 -256.5,-376.906 -263.906,-360.062C-271.313,-343.219 -275,-325.094 -275,-305.719L-275,193.453C-275,212.844 -271.313,231.172 -263.906,248.437C-256.5,265.719 -246.641,280.672 -234.313,293.297C-221.984,305.937 -207.391,316.047 -190.531,323.625C-173.687,331.219 -155.797,335 -136.891,335C-117.984,335 -100.297,331.219 -83.859,323.641C-67.422,316.078 -53.031,305.969 -40.703,293.344C-28.375,280.719 -18.516,265.781 -11.109,248.531C-3.703,231.281 0,212.969 0,193.594L0,-69L-167.953,-69L-167.953,-111Z" style="fill:rgb(28,37,42);fill-rule:nonzero;"/>
                    </g>
                    <g transform="matrix(1,0,0,1,2597.73,1174.99)">
                        <path d="M0,-628L0,-586L-48.156,-586C-65.453,-586 -81.516,-582.641 -96.328,-575.922C-111.156,-569.203 -124.328,-560.172 -135.859,-548.828C-147.391,-537.484 -156.437,-524.031 -163.016,-508.5C-169.609,-492.953 -172.891,-476.359 -172.891,-458.719L-172.891,0L-213.891,0L-213.891,-580L-254.641,-580L-254.641,-622L-172.891,-622L-172.891,-569.984C-141.609,-606.984 -101.266,-626.313 -51.859,-628L0,-628Z" style="fill:rgb(28,37,42);fill-rule:nonzero;"/>
                    </g>
                    <g transform="matrix(1,0,0,1,2794.75,1139.99)">
                        <path d="M0,-551C-17.266,-551 -33.5,-547.625 -48.703,-540.906C-63.906,-534.188 -77.047,-525.141 -88.141,-513.797C-99.234,-502.453 -108.078,-489 -114.641,-473.453C-121.219,-457.891 -124.5,-441.297 -124.5,-423.656L-124.75,-278.656C-112.406,-283.688 -97.188,-289.781 -79.094,-296.938C-61,-304.078 -42.906,-311.016 -24.812,-317.734C-6.719,-324.453 9.953,-330.766 25.172,-336.656C40.391,-342.531 51.281,-346.734 57.875,-349.266C72.672,-355.141 87.469,-363.969 102.281,-375.734C117.094,-387.5 124.5,-403.891 124.5,-424.922C124.5,-442.562 121.203,-458.953 114.641,-474.078C108.063,-489.203 99.234,-502.453 88.141,-513.797C77.047,-525.141 63.891,-534.188 48.688,-540.906C33.484,-547.625 17.25,-551 0,-551M71.719,-310.375C64.313,-307.844 51.969,-303.016 34.688,-295.859C17.406,-288.703 -1.297,-281.344 -21.453,-273.781C-41.609,-266.219 -61.156,-258.641 -80.078,-251.078C-99,-243.5 -113.813,-238.031 -124.5,-234.672L-124.5,-127.438C-124.5,-109.766 -121.219,-93.156 -114.641,-77.594C-108.078,-62.031 -99.234,-48.563 -88.141,-37.219C-77.047,-25.859 -63.906,-16.813 -48.703,-10.094C-33.5,-3.359 -17.266,0 0,0C17.25,0 33.484,-3.359 48.688,-10.094C63.891,-16.813 77.047,-25.859 88.141,-37.219C99.234,-48.578 108.063,-62.047 114.641,-77.609C121.203,-93.172 124.5,-109.781 124.5,-127.453L165.5,-127.453C165.5,-103.891 161.172,-81.813 152.531,-61.203C143.875,-40.578 132.141,-22.688 117.328,-7.5C102.5,7.687 85,19.734 64.828,28.641C44.656,37.531 23.047,42 0,42C-23.062,42 -44.672,37.578 -64.844,28.75C-85.016,19.906 -102.516,7.922 -117.328,-7.234C-132.156,-22.375 -143.891,-40.25 -152.531,-60.875C-161.187,-81.5 -165.5,-103.594 -165.5,-127.172L-165.5,-423.828C-165.5,-447.391 -161.187,-469.484 -152.531,-490.109C-143.891,-510.734 -132.156,-528.609 -117.328,-543.766C-102.516,-558.906 -85.016,-570.891 -64.844,-579.734C-44.672,-588.578 -23.062,-593 0,-593C23.047,-593 44.656,-588.578 64.828,-579.75C85,-570.906 102.5,-558.922 117.328,-543.781C132.141,-528.641 143.875,-510.766 152.531,-490.172C161.172,-469.562 165.5,-447.906 165.5,-425.187L165.5,-423.937C165.5,-371.781 134.234,-333.922 71.719,-310.375" style="fill:rgb(28,37,42);fill-rule:nonzero;"/>
                    </g>
                    <g transform="matrix(1,0,0,1,3212.02,1139.99)">
                        <path d="M0,-551C-17.266,-551 -33.5,-547.625 -48.703,-540.906C-63.906,-534.188 -77.047,-525.141 -88.141,-513.797C-99.234,-502.453 -108.078,-489 -114.641,-473.453C-121.219,-457.891 -124.5,-441.297 -124.5,-423.656L-124.75,-278.656C-112.406,-283.688 -97.188,-289.781 -79.094,-296.938C-61,-304.078 -42.906,-311.016 -24.812,-317.734C-6.719,-324.453 9.953,-330.766 25.172,-336.656C40.391,-342.531 51.281,-346.734 57.875,-349.266C72.672,-355.141 87.469,-363.969 102.281,-375.734C117.094,-387.5 124.5,-403.891 124.5,-424.922C124.5,-442.562 121.203,-458.953 114.641,-474.078C108.063,-489.203 99.234,-502.453 88.141,-513.797C77.047,-525.141 63.891,-534.188 48.688,-540.906C33.484,-547.625 17.25,-551 0,-551M71.719,-310.375C64.313,-307.844 51.969,-303.016 34.688,-295.859C17.406,-288.703 -1.297,-281.344 -21.453,-273.781C-41.609,-266.219 -61.156,-258.641 -80.078,-251.078C-99,-243.5 -113.813,-238.031 -124.5,-234.672L-124.5,-127.438C-124.5,-109.766 -121.219,-93.156 -114.641,-77.594C-108.078,-62.031 -99.234,-48.563 -88.141,-37.219C-77.047,-25.859 -63.906,-16.813 -48.703,-10.094C-33.5,-3.359 -17.266,0 0,0C17.25,0 33.484,-3.359 48.688,-10.094C63.891,-16.813 77.047,-25.859 88.141,-37.219C99.234,-48.578 108.063,-62.047 114.641,-77.609C121.203,-93.172 124.5,-109.781 124.5,-127.453L165.5,-127.453C165.5,-103.891 161.172,-81.813 152.531,-61.203C143.875,-40.578 132.141,-22.688 117.328,-7.5C102.5,7.687 85,19.734 64.828,28.641C44.656,37.531 23.047,42 0,42C-23.062,42 -44.672,37.578 -64.844,28.75C-85.016,19.906 -102.516,7.922 -117.328,-7.234C-132.156,-22.375 -143.891,-40.25 -152.531,-60.875C-161.187,-81.5 -165.5,-103.594 -165.5,-127.172L-165.5,-423.828C-165.5,-447.391 -161.187,-469.484 -152.531,-490.109C-143.891,-510.734 -132.156,-528.609 -117.328,-543.766C-102.516,-558.906 -85.016,-570.891 -64.844,-579.734C-44.672,-588.578 -23.062,-593 0,-593C23.047,-593 44.656,-588.578 64.828,-579.75C85,-570.906 102.5,-558.922 117.328,-543.781C132.141,-528.641 143.875,-510.766 152.531,-490.172C161.172,-469.562 165.5,-447.906 165.5,-425.187L165.5,-423.937C165.5,-371.781 134.234,-333.922 71.719,-310.375" style="fill:rgb(28,37,42);fill-rule:nonzero;"/>
                    </g>
                    <g transform="matrix(1,0,0,1,3629.29,1174.99)">
                        <path d="M0,-628C23.047,-628 44.656,-623.578 64.828,-614.75C85,-605.922 102.5,-593.937 117.328,-578.812C132.141,-563.687 143.875,-545.812 152.531,-525.219C161.172,-504.625 165.5,-482.547 165.5,-459.016L165.5,0L124.5,0L124.5,-458.719C124.5,-476.359 121.203,-492.953 114.641,-508.5C108.063,-524.031 99.234,-537.484 88.141,-548.828C77.047,-560.172 63.891,-569.203 48.688,-575.922C33.484,-582.641 17.25,-586 0,-586C-17.266,-586 -33.5,-582.641 -48.703,-575.922C-63.906,-569.203 -77.047,-560.172 -88.141,-548.828C-99.234,-537.484 -108.078,-524.031 -114.641,-508.5C-121.219,-492.953 -124.5,-476.359 -124.5,-458.719L-124.5,0L-165.5,0L-165.5,-622L-124.5,-622L-124.75,-569.984C-109.109,-588.484 -90.578,-602.766 -69.172,-612.859C-47.766,-622.953 -24.719,-628 0,-628" style="fill:rgb(28,37,42);fill-rule:nonzero;"/>
                    </g>
                </g>
                <g transform="matrix(0.310092,0,0,0.494208,112.941,180.002)">
                    <g transform="matrix(1,0,0,1,3963.24,630.989)">
                        <path d="M0,235L222.297,235L111.141,-274.859L0,235ZM288.984,544L230.937,277L-8.656,277L-66.688,544L-108.688,544L76.563,-309L145.719,-309L330.969,544L288.984,544Z" style="fill:rgb(143,209,35);fill-rule:nonzero;"/>
                    </g>
                    <g transform="matrix(1,0,0,1,4384.43,694.269)">
                        <path d="M0,-99.281L0,318.297C0,335.969 2.875,352.579 8.641,368.141C14.406,383.704 22.234,397.157 32.109,408.5C41.984,419.86 53.516,428.907 66.688,435.625C79.859,442.36 93.859,445.719 108.688,445.719L108.688,487.719C88.094,487.719 68.75,483.297 50.641,474.454C32.516,465.61 16.656,453.61 3.031,438.454C-10.594,423.297 -21.328,405.407 -29.203,384.782C-37.078,364.157 -41,342.047 -41,318.469L-41,-318.281L0,-318.281L0,-141.281L133.391,-141.281L133.391,-99.281L0,-99.281Z" style="fill:rgb(143,209,35);fill-rule:nonzero;"/>
                    </g>
                    <g transform="matrix(1,0,0,1,-11.5257,-11.892)">
                        <rect x="4590.75" y="281.881" width="41" height="905" style="fill:rgb(143,209,35);"/>
                    </g>
                    <g transform="matrix(1,0,0,1,5005.01,865.144)">
                        <path d="M0,-1.312L0.25,-32.843C-12.094,-27.796 -27.312,-21.906 -45.406,-15.187C-63.5,-8.453 -81.609,-1.515 -99.703,5.625C-117.797,12.766 -134.25,19.282 -149.062,25.157C-163.875,31.047 -174.562,35.251 -181.141,37.766C-196.766,43.657 -211.984,52.485 -226.797,64.251C-241.609,76.032 -249,92.001 -249,112.172L-249,147.485C-249,165.141 -245.719,181.75 -239.141,197.297C-232.578,212.86 -223.734,226.313 -212.641,237.657C-201.547,249 -188.406,258.047 -173.203,264.766C-158,271.485 -141.766,274.844 -124.5,274.844C-107.25,274.844 -91.016,271.485 -75.813,264.766C-60.609,258.047 -47.453,249 -36.359,237.657C-25.266,226.313 -16.437,212.86 -9.859,197.297C-3.297,181.75 0,165.141 0,147.485L0,-1.312ZM-114.563,-318.156C-91.531,-318.156 -70.547,-313.734 -51.609,-304.906C-32.672,-296.078 -16.422,-284.093 -2.828,-268.968C10.75,-253.843 21.453,-235.968 29.266,-215.374C37.078,-194.781 41,-172.703 41,-149.171L41,309.844L0,309.844L0,258.766C-15.641,276.454 -34.156,290.547 -55.563,301.063C-76.969,311.579 -100.031,316.844 -124.734,316.844C-147.797,316.844 -169.406,312.422 -189.578,303.594C-209.75,294.766 -227.25,282.782 -242.062,267.641C-256.875,252.5 -268.609,234.625 -277.25,214.016C-285.906,193.422 -290.219,171.344 -290.219,147.782L-290.219,112.454C-290.219,60.297 -258.937,22.454 -196.359,-1.109C-188.953,-4.468 -176.406,-9.515 -158.703,-16.25C-141,-22.968 -122.063,-30.328 -101.891,-38.328C-81.719,-46.312 -62.156,-53.875 -43.219,-61.031C-24.281,-68.187 -9.875,-73.859 0,-78.062L0,-148.718C0,-184.046 -10.484,-214.124 -31.453,-238.937C-52.422,-263.749 -80.188,-276.156 -114.719,-276.156C-131.984,-276.156 -148.016,-272.781 -162.812,-266.062C-177.625,-259.328 -190.781,-250.281 -202.297,-238.921C-213.812,-227.562 -222.859,-214.109 -229.437,-198.546C-236.016,-182.984 -239.297,-166.359 -239.297,-148.703L-280,-148.703C-280,-172.249 -275.687,-194.328 -267.047,-214.953C-258.406,-235.562 -246.672,-253.453 -231.859,-268.64C-217.047,-283.828 -199.547,-295.874 -179.375,-304.781C-159.219,-313.687 -137.609,-318.156 -114.563,-318.156" style="fill:rgb(143,209,35);fill-rule:nonzero;"/>
                    </g>
                    <g transform="matrix(1,0,0,1,5307.8,883.864)">
                        <path d="M0,-38.75C18.094,-29.5 36.391,-19.609 54.906,-9.094C73.406,1.422 90.063,13.406 104.875,26.859C119.688,40.328 131.812,55.25 141.281,71.656C150.75,88.063 155.484,107.187 155.484,129.062C155.484,152.625 151.156,174.703 142.516,195.297C133.859,215.906 122.125,233.781 107.313,248.922C92.484,264.062 74.984,276.047 54.813,284.875C34.641,293.703 13.031,298.125 -10.016,298.125C-33.078,298.125 -54.688,293.656 -74.859,284.766C-95.031,275.859 -112.531,263.812 -127.344,248.625C-142.172,233.437 -153.906,215.547 -162.547,194.922C-171.203,174.312 -175.516,152.234 -175.516,128.672L-134.516,128.672C-134.516,146.344 -131.234,162.953 -124.656,178.516C-118.094,194.078 -109.25,207.547 -98.156,218.906C-87.063,230.266 -73.922,239.312 -58.719,246.031C-43.516,252.766 -27.281,256.125 -10.016,256.125C7.234,256.125 23.469,252.766 38.672,246.031C53.875,239.312 67.031,230.266 78.125,218.906C89.219,207.562 98.047,194.094 104.625,178.531C111.188,162.969 114.484,146.359 114.484,128.687C114.484,113.562 110.781,99.891 103.375,87.688C95.969,75.5 86.094,64.344 73.75,54.25C61.406,44.156 47.219,34.703 31.187,25.859C15.141,17.031 -1.516,7.984 -18.797,-1.266C-37.719,-10.516 -56.438,-20.391 -74.938,-30.906C-93.453,-41.422 -110.109,-53.203 -124.922,-66.234C-139.734,-79.266 -151.859,-93.984 -161.328,-110.391C-170.797,-126.797 -175.516,-145.938 -175.516,-167.812C-175.516,-191.359 -171.203,-213.437 -162.547,-234.047C-153.906,-254.641 -142.172,-272.516 -127.344,-287.656C-112.531,-302.797 -95.031,-314.781 -74.859,-323.625C-54.688,-332.453 -33.078,-336.875 -10.016,-336.875C13.031,-336.875 34.641,-332.406 54.813,-323.5C74.984,-314.594 92.484,-302.547 107.313,-287.359C122.125,-272.172 133.859,-254.281 142.516,-233.672C151.156,-213.047 155.484,-190.969 155.484,-167.422L114.484,-167.422C114.484,-185.078 111.188,-201.703 104.625,-217.266C98.047,-232.828 89.219,-246.281 78.125,-257.641C67.031,-269 53.875,-278.047 38.672,-284.781C23.469,-291.5 7.234,-294.875 -10.016,-294.875C-27.281,-294.875 -43.516,-291.5 -58.719,-284.781C-73.922,-278.047 -87.063,-269 -98.156,-257.656C-109.25,-246.297 -118.094,-232.844 -124.656,-217.281C-131.234,-201.719 -134.516,-185.094 -134.516,-167.437C-134.516,-152.297 -130.812,-138.625 -123.406,-126.438C-116,-114.234 -105.922,-103.094 -93.172,-93C-80.422,-82.906 -66.031,-73.438 -49.984,-64.609C-33.953,-55.766 -17.281,-47.156 0,-38.75" style="fill:rgb(143,209,35);fill-rule:nonzero;"/>
                    </g>
                </g>
            </g>
            <g transform="matrix(0.310092,0,0,0.494208,112.941,180.002)">
                <g transform="matrix(-1,-6.12323e-17,-6.12323e-17,1,-0.0001,728.433)">
                    <path d="M-728.439,-728.44C-1130.8,-728.44 -1456.88,-402.358 -1456.88,-0.003C-1456.88,402.236 -1130.8,728.439 -728.439,728.439C-326.084,728.439 -0.002,402.236 -0.002,-0.003C-0.002,-402.358 -326.084,-728.44 -728.439,-728.44" style="fill:rgb(9,34,12);"/>
                </g>
                <g transform="matrix(1,0,0,1,1038.16,572.491)">
                    <path d="M0,-37.961C-0.875,-69.625 -11.047,-100.414 -20.023,-120.668C-20.617,-119.078 -21.355,-117.403 -22.191,-115.934C-30.57,-98.582 -43.679,-85.266 -57.988,-73.008C-57.492,-68.168 -57.25,-63.293 -57.117,-58.446C-56.277,-43.676 -57.371,-28.492 -61.496,-13.465C-67.547,11.867 -80.277,35.765 -103.219,55.422C-107.937,60.261 -112.914,64.761 -117.871,68.738C-114.605,74.945 -111.105,78.332 -108.058,80.379C-108.175,80.975 -106.715,81.893 -105.752,81.956C-105.827,82.043 -105.89,82.128 -105.89,82.211L-105.152,82.211C-104.179,82.211 -102.844,82.332 -101.39,82.453C-99.937,82.586 -98.129,82.707 -96.297,82.707C-95.801,82.707 -95.203,82.586 -94.707,82.586L-94.25,82.586C-89.035,82.453 -59.203,73.738 -35.047,48.621C-17.73,33.812 -8.008,15.746 -3.41,-3.403C-0.742,-14.68 0.219,-26.442 0,-37.961" style="fill:rgb(43,95,32);fill-rule:nonzero;"/>
                </g>
                <g transform="matrix(-0.931214,-0.364473,-0.364473,0.931214,1015.21,456.026)">
                    <path d="M-0.907,-5.401C-1.021,-3.479 -0.958,-1.616 -0.857,0.088L-0.907,0.215C-1.106,-1.57 -1.226,-3.286 -1.2,-4.983C-1.156,-5.096 -0.955,-5.278 -0.907,-5.401" style="fill:rgb(43,95,32);fill-rule:nonzero;"/>
                </g>
                <g transform="matrix(1,0,0,1,920.293,499.483)">
                    <path d="M0,141.746C-2.422,137.273 -4.629,131.223 -6.43,123.215C-7.422,118.586 -8.258,113.152 -8.851,107.062C-14.308,52.035 25.828,29.211 59.883,0C60.379,4.84 60.621,9.715 60.754,14.562C61.094,29.586 59.883,44.855 56.375,59.543C50.324,84.875 37.594,108.773 14.652,128.43C9.934,133.269 4.957,137.769 0,141.746" style="fill:rgb(107,171,38);fill-rule:nonzero;"/>
                </g>
                <g transform="matrix(1,0,0,1,1189.73,267.146)">
                    <path d="M0,922.568C-8.259,930.816 -16.705,938.808 -25.318,946.556C-31.799,944.537 -40.472,941.838 -51.077,938.544L-67.865,933.285C-76.396,930.613 -85.789,927.671 -95.933,924.489L-96.165,924.423C-107.03,921.666 -118.717,918.634 -131.09,915.425C-138.901,913.399 -146.997,911.298 -155.259,909.172C-172.087,904.434 -190.135,900.698 -209.242,896.742C-214.791,895.593 -220.413,894.429 -226.14,893.212C-230.524,892.326 -235.035,891.356 -239.396,890.418C-247.654,888.642 -256.193,886.806 -264.975,885.288L-265.391,885.221C-278.604,883.071 -292.032,880.887 -305.764,878.613C-308.724,878.145 -311.69,877.653 -314.67,877.16C-318.573,876.513 -322.609,875.844 -326.548,875.242C-328.282,874.937 -330.02,874.638 -331.757,874.338C-333.53,874.032 -335.303,873.726 -337.071,873.415L-337.363,873.374C-339.101,873.188 -340.857,872.982 -342.612,872.776C-344.437,872.563 -346.259,872.349 -347.962,872.169C-360.678,870.541 -375.788,868.632 -391.36,866.836C-398.507,865.883 -405.501,865.072 -412.905,864.214L-413.464,864.15C-418.422,863.668 -423.641,863.201 -429.266,862.736L-429.266,723.821C-429.266,696.165 -429.269,669.601 -429.733,644.089C-428.009,611.702 -424.447,582.004 -417.066,555.079C-409.824,528.796 -399.286,506.204 -384.856,486.023C-368.974,463.947 -348.377,444.256 -321.89,425.821L-318.291,423.316L-331.329,404.776L-334.895,407.262C-363.714,427.363 -386.073,448.847 -403.242,472.927C-414.607,488.735 -423.768,505.793 -430.976,524.723L-430.976,288.833C-430.976,267.742 -423.062,251.076 -418.312,242.964C-414.71,236.607 -410.891,232.1 -408.321,229.438L-408.25,229.362C-406.853,227.844 -405.531,226.766 -404.823,226.304L-404.473,226.051C-404.371,225.969 -404.232,225.864 -404.099,225.786L-401.145,224.674L-401.145,220.913L-405.415,202.872L-409.649,203.841C-413.08,204.627 -415.557,206.134 -417.733,207.655C-421.617,210.388 -425.519,214.24 -429.659,219.434C-434.176,225.103 -440.669,234.717 -445.956,248.331C-451.053,261.49 -453.637,275.117 -453.637,288.833L-453.637,457.553C-463.6,427.034 -477.108,399.996 -494.719,375.326C-516.924,344.351 -545.869,316.596 -583.205,290.473L-586.789,287.966L-602.083,309.931L-598.519,312.427C-563.644,336.851 -536.815,362.531 -516.503,390.928C-488.683,429.971 -472.496,473.741 -464.019,532.848C-456.429,585.776 -455.934,645.383 -456.062,723.821L-456.062,860.54C-464.112,859.87 -472.21,859.181 -480.217,858.457C-489.365,857.713 -498.611,857.325 -507.552,856.951C-513.293,856.711 -519.23,856.462 -525.105,856.119C-528.393,855.968 -531.671,855.834 -534.946,855.7C-539.064,855.531 -543.175,855.362 -547.315,855.161L-558.495,854.689L-569.63,854.564C-584.371,854.321 -599.29,854.186 -613.344,854.068C-615.154,854.068 -616.925,854.037 -618.692,854.007C-620.502,853.977 -622.309,853.946 -624.148,853.946L-624.294,853.949C-626.068,854.008 -627.821,854.038 -629.559,854.068C-631.377,854.098 -633.179,854.13 -634.902,854.19C-638.351,854.254 -641.778,854.343 -645.191,854.432C-648.842,854.527 -652.476,854.623 -656.061,854.685C-679.142,854.861 -701.397,856.202 -722.92,857.498C-727.637,857.782 -732.309,858.063 -736.926,858.328C-746.709,858.872 -756.265,859.772 -765.506,860.641C-768.501,860.923 -771.47,861.203 -774.375,861.464C-781.12,862.014 -786.748,862.496 -792.214,863.051C-796.743,863.437 -801.125,864.024 -805.364,864.591C-806.707,864.771 -808.045,864.95 -809.342,865.117C-820.314,866.429 -831.11,867.778 -841.43,869.127L-841.543,869.144C-851.786,870.757 -861.749,872.383 -870.21,873.77C-878.418,874.972 -885.873,876.507 -893.082,877.992L-895.746,878.54C-898.576,879.159 -901.343,879.717 -904.019,880.256C-908.698,881.2 -913.117,882.091 -917.403,883.211C-920.028,883.92 -922.555,884.589 -924.966,885.229C-934.683,887.805 -942.374,889.844 -947.683,892.07C-948.617,892.399 -949.481,892.702 -950.289,892.985C-1055.81,773.714 -1113.47,621.933 -1113.47,461.286C-1113.47,287.035 -1045.63,123.212 -922.461,0.001C-799.12,-123.18 -635.339,-191.018 -461.289,-191.018C-287.164,-191.018 -123.342,-123.18 -0.005,-0.003C123.174,123.212 191.012,287.034 191.012,461.286C191.012,635.537 123.174,799.358 0,922.568M-461.289,1113.59C-635.338,1113.59 -799.119,1045.75 -922.457,922.572C-925.627,919.401 -928.75,916.197 -931.847,912.973C-928.722,912.014 -925.17,911.062 -921.136,909.985C-917.953,909.135 -914.662,908.257 -911.1,907.246C-907.478,906.246 -903.359,905.398 -899,904.5C-896.275,903.939 -893.459,903.359 -890.639,902.719C-888.903,902.358 -887.144,901.98 -885.356,901.595C-879.269,900.288 -872.975,898.936 -866.077,897.911C-855.611,896.18 -846.646,894.672 -837.875,893.167L-828.969,891.97C-821.732,890.996 -814.212,889.983 -806.432,888.957L-803.363,888.531C-798.908,887.909 -794.302,887.267 -789.76,886.772C-785.552,886.431 -781.152,885.991 -776.896,885.566C-775.316,885.408 -773.731,885.249 -772.167,885.096C-768.116,884.724 -764.003,884.31 -759.842,883.89C-751.886,883.088 -743.659,882.259 -735.445,881.689C-730.156,881.366 -724.808,881.022 -719.404,880.673C-698.803,879.345 -677.5,877.971 -655.542,877.597C-651.976,877.474 -648.44,877.379 -644.893,877.282C-641.431,877.189 -637.957,877.095 -634.427,876.976L-633.492,876.943C-630.317,876.834 -627.119,876.723 -623.945,876.603L-613.384,876.603C-605.863,876.673 -598.281,876.706 -590.665,876.739C-583.792,876.769 -576.891,876.799 -569.946,876.857L-558.995,876.857L-548.219,877.214C-542.148,877.526 -535.979,877.733 -530.013,877.932L-526.02,878.067C-520.658,878.336 -515.187,878.526 -509.896,878.711C-500.653,879.033 -491.096,879.366 -481.728,880.134L-466.768,881.235C-456.977,881.955 -447.2,882.674 -437.529,883.393C-430.883,883.946 -423.071,884.58 -415.5,885.098C-408.239,885.934 -401.019,886.765 -393.772,887.634C-389.134,888.167 -384.509,888.704 -379.9,889.239C-370.24,890.36 -360.251,891.52 -350.555,892.598C-348.936,892.772 -347.309,892.964 -345.668,893.157C-343.802,893.377 -341.919,893.598 -340.01,893.798C-338.253,894.107 -336.524,894.38 -334.791,894.653C-333.12,894.917 -331.444,895.181 -329.646,895.494C-322.974,896.524 -316.384,897.56 -309.793,898.597L-308.805,898.753C-298.427,900.399 -288.175,901.988 -278.074,903.555L-268.473,905.045C-259.742,906.485 -251.18,908.243 -242.9,909.942C-238.664,910.811 -234.283,911.711 -230.068,912.527C-223.299,913.942 -216.568,915.285 -210.061,916.585C-192.365,920.119 -175.651,923.456 -160.157,927.764L-145.014,931.577C-129.374,935.515 -114.6,939.235 -101.184,942.552C-91.832,945.368 -83.139,948.011 -75.157,950.438C-68.396,952.493 -62.145,954.394 -56.458,956.107C-50.951,957.799 -45.963,959.326 -41.528,960.68C-159.004,1059.66 -306.051,1113.59 -461.289,1113.59M216.263,454.403C215.388,365.348 197.497,278.959 163.055,197.513C128.931,116.822 80.08,44.36 17.858,-17.863C-44.363,-80.085 -116.826,-128.936 -197.516,-163.06C-281.058,-198.39 -369.804,-216.304 -461.289,-216.304C-552.748,-216.304 -641.477,-198.39 -725.013,-163.06C-805.701,-128.935 -878.166,-80.084 -940.394,-17.863C-1002.63,44.362 -1051.49,116.825 -1085.62,197.512C-1120.96,281.058 -1138.88,369.804 -1138.88,461.286C-1138.88,552.768 -1120.96,641.515 -1085.62,725.06C-1051.49,805.747 -1002.63,878.209 -940.394,940.434C-878.166,1002.65 -805.701,1051.51 -725.013,1085.63C-641.477,1120.96 -552.748,1138.87 -461.289,1138.87C-369.804,1138.87 -281.058,1120.96 -197.516,1085.63C-116.826,1051.51 -44.363,1002.65 17.858,940.433C80.08,878.212 128.931,805.75 163.055,725.06C197.497,643.613 215.388,557.224 216.263,468.169L216.297,454.403L216.263,454.403Z" style="fill:rgb(178,203,172);fill-rule:nonzero;"/>
                </g>
                <g transform="matrix(1,0,0,1,597.598,576.471)">
                    <path d="M0,55.071C-0.852,52.656 -1.336,46.946 -3.024,40.641C-3.145,40.387 -3.145,40.266 -3.266,40.043C-5.215,33.496 -25.711,-2.047 -65.352,-24.953C-89.633,-42.183 -115.555,-48.988 -141.168,-48.988C-141.504,-48.988 -141.883,-48.988 -142.246,-48.867C-157.406,-48.867 -172.453,-46.32 -186.86,-42.441C-227.254,-31.383 -263.512,-8.472 -286.66,9.34C-286.66,9.477 -286.66,9.477 -286.793,9.477L-286.66,9.477C-286.914,9.598 -287.035,9.719 -287.156,9.84C-284.746,9.973 -282.418,10.336 -279.992,10.672L-279.871,10.672C-207.719,25.953 -165.531,104.059 -93.512,104.059C-81.625,104.059 -68.895,101.891 -55.047,97.016C-47.539,94.371 -40.992,91.582 -35.305,88.781C-12.735,77.613 -4.477,66.215 -1.711,58.453C-0.973,58.453 -0.254,56.039 -0.477,54.828C-0.379,54.949 -0.254,54.949 0,55.071" style="fill:rgb(85,148,38);fill-rule:nonzero;"/>
                </g>
                <g transform="matrix(1,0,0,1,980.176,577.924)">
                    <path d="M0,-78.441C-3.266,-114.957 -15.027,-149.504 -25.453,-173.164C-26.293,-170.957 -27.285,-168.906 -28.258,-166.855C-65.848,-89.465 -176.176,-72.015 -166.125,30.707C-165.273,38.813 -164.195,45.856 -162.727,52.039C-157.391,76.535 -148.297,87.086 -141.371,91.684C-141.625,92.543 -139.578,93.754 -138.242,93.754C-138.363,93.891 -138.488,94.012 -138.586,94.254C-138.242,94.133 -137.988,94.133 -137.492,94.133C-136.281,94.133 -134.609,94.254 -132.535,94.469C-130.481,94.59 -128.18,94.723 -125.731,94.723L-123.801,94.723C-123.68,94.723 -123.438,94.723 -123.184,94.59C-117.508,94.469 -88.633,86.25 -60.633,63.922C-62.926,59.328 -64.977,53.121 -66.313,44.774C-67.305,40.145 -68.141,34.711 -68.734,28.621C-74.191,-26.406 -34.055,-49.23 0,-78.441" style="fill:rgb(85,148,38);fill-rule:nonzero;"/>
                </g>
                <g transform="matrix(1,0,0,1,821.945,378.471)">
                    <path d="M0,-5.953C-0.871,-18.687 -3.636,-31.285 -7.757,-43.426C-19.062,-76.652 -39.894,-105.765 -55.914,-124.297C-56.035,-124.297 -56.035,-124.418 -56.035,-124.418L-56.035,-124.297C-56.156,-122.5 -56.41,-120.539 -56.75,-118.617C-67.554,-47.062 -151.953,-5.711 -118.246,74.324C-115.574,80.617 -112.906,85.965 -110.242,90.586C-99.808,108.996 -89.867,115.203 -83.199,117.133C-83.199,117.75 -81.984,118.09 -80.906,118.09C-80.648,118.09 -80.406,118.09 -80.152,117.969C-80.152,118.223 -80.273,118.344 -80.273,118.465C-78.359,117.629 -73.605,117.012 -68.39,115.203C-68.269,115.203 -68.05,115.082 -67.929,115.082C-65.964,114.344 -61.003,111.418 -54.699,106.582C-52.277,103.778 -49.859,101.61 -47.437,99.899C-46.941,99.559 -46.441,99.317 -45.98,98.942C-36.011,89.727 -24.871,76.496 -16.39,59.637C-2.917,38.309 1.458,15.863 0,-5.953" style="fill:rgb(85,148,38);fill-rule:nonzero;"/>
                </g>
                <g transform="matrix(1,0,0,1,491.61,597.924)">
                    <path d="M0,-96.609C59.918,-66.304 121.128,-24 171.359,26.95C171.359,28.657 159.101,40.164 158.007,39.801C148.793,50.473 126.343,64.297 71.425,63.082C-72.989,59.7 -74.821,-100.613 -181.168,-160.906C-117.508,-149.726 -59.18,-126.941 0,-96.609" style="fill:rgb(143,209,35);"/>
                </g>
                <g transform="matrix(1,0,0,1,616.746,517.542)">
                    <path d="M0,-24.11C40.012,23.914 49.606,78.953 48.989,88.304C48.391,97.64 46.223,105.402 46.102,108.906C-4.343,60.39 -55.879,11.527 -114.707,-17.563C-172.797,-46.559 -229.91,-68.504 -291.379,-79.188C-294.301,-80.766 -297.211,-82.317 -300.133,-83.653C-225.195,-107.43 -74.57,-133.016 0,-24.11" style="fill:rgb(143,209,35);"/>
                </g>
                <g transform="matrix(1,0,0,1,857.832,617.605)">
                    <path d="M0,-20.271C-33.219,23.999 -39.426,73.112 -38.429,81.37C-37.472,89.495 -35.168,96.397 -34.926,99.562C7.637,54.331 51.063,8.843 101.981,-19.399C152.051,-47.657 201.543,-69.603 255.488,-81.743C257.942,-83.196 260.488,-84.653 263.031,-86.118C195.731,-103.813 61.371,-119.833 0,-20.271" style="fill:rgb(143,209,35);"/>
                </g>
                <g transform="matrix(1,0,0,1,969.031,682.253)">
                    <path d="M0,-83.465C-51.781,-54.001 -104.058,-13.739 -146.367,33.445C-146.125,34.914 -134.859,44.589 -133.988,44.249C-125.39,53.226 -104.894,64.621 -56.257,60.988C71.438,51.769 65.965,-90.254 157.508,-148.086C101.606,-135.586 50.942,-112.801 0,-83.465" style="fill:rgb(143,209,35);"/>
                </g>
                <g transform="matrix(1,0,0,1,717.758,384.267)">
                    <path d="M0,56.513C-5.934,103.454 10.305,142.501 14.441,148.212C18.684,153.778 23.281,157.9 24.75,160.192C37.227,108.548 50.199,56.513 75.937,13.946C101.148,-28.12 128.551,-65.335 163.477,-97.253C164.687,-99.425 165.902,-101.593 167.234,-103.679C109.742,-88.401 3.297,-43.265 0,56.513" style="fill:rgb(143,209,35);"/>
                </g>
                <g transform="matrix(1,0,0,1,800.836,434.607)">
                    <path d="M0,-39.776C-25.953,4.001 -47.777,55.899 -59.043,108.774C-58.328,109.852 -45.851,112.278 -45.355,111.563C-35.18,114.704 -15.148,114.364 19.402,91.2C110.231,30.329 46.067,-72.773 89.492,-154.48C53.367,-121.507 25.328,-83.198 0,-39.776" style="fill:rgb(143,209,35);"/>
                </g>
            </g>
        </g>
    </g>
</svg>
